<svg xmlns="http://www.w3.org/2000/svg" xmlns:xlink="http://www.w3.org/1999/xlink" width="500" zoomAndPan="magnify" viewBox="0 0 375 374.999991" height="500" preserveAspectRatio="xMidYMid meet" version="1.0"><defs><g/></defs><g fill="#ffffff" fill-opacity="1"><g transform="translate(85.704872, 216.130464)"><g><path d="M 53.28125 -177.25 L 53.28125 -35.453125 L 114.296875 -35.453125 L 114.296875 0 L 12.890625 0 L 12.890625 -177.25 Z M 53.28125 -177.25 "/></g></g></g><g fill="#ffffff" fill-opacity="1"><g transform="translate(289.292916, 113.777834)"><g><path d="M -53.28125 177.25 L -53.28125 35.453125 L -114.296875 35.453125 L -114.296875 0 L -12.890625 0 L -12.890625 177.25 Z M -53.28125 177.25 "/></g></g></g><g fill="#ffffff" fill-opacity="1"><g transform="translate(25.649933, 348.374977)"><g><path d="M 2.078125 0 L 23.320312 0 L 23.320312 -8.078125 L 11.320312 -8.078125 L 11.320312 -28 L 2.078125 -28 Z M 2.078125 0 "/></g></g></g><g fill="#ffffff" fill-opacity="1"><g transform="translate(58.647611, 348.374977)"><g><path d="M 2.078125 0 L 11.320312 0 L 11.320312 -28 L 2.078125 -28 Z M 2.078125 0 "/></g></g></g><g fill="#ffffff" fill-opacity="1"><g transform="translate(81.286326, 348.374977)"><g><path d="M 2.078125 0 L 15.71875 0 C 21.636719 0 27.160156 -1.679688 27.160156 -8.039062 C 27.160156 -11.597656 25.320312 -13.878906 22.039062 -14.878906 C 24.917969 -16 26.039062 -18.039062 26.039062 -20.917969 C 26.039062 -25.796875 22.4375 -28 16.117188 -28 L 2.078125 -28 Z M 11.320312 -17.078125 L 11.320312 -21.238281 L 14.800781 -21.238281 C 16.359375 -21.238281 17.117188 -20.277344 17.117188 -19.160156 C 17.117188 -18 16.359375 -17.078125 14.800781 -17.078125 Z M 11.320312 -6.839844 L 11.320312 -11.398438 L 15.238281 -11.398438 C 17 -11.398438 17.878906 -10.558594 17.878906 -9.121094 C 17.878906 -7.640625 17 -6.839844 15.238281 -6.839844 Z M 11.320312 -6.839844 "/></g></g></g><g fill="#ffffff" fill-opacity="1"><g transform="translate(118.44359, 348.374977)"><g><path d="M 2.078125 0 L 11.320312 0 L 11.320312 -8.238281 L 13.519531 -8.238281 L 19.238281 0 L 29.398438 0 L 22.238281 -9.757812 C 25.039062 -11.160156 27.039062 -13.71875 27.039062 -18.117188 C 27.039062 -25.757812 21.078125 -28 15.117188 -28 L 2.078125 -28 Z M 11.320312 -15.199219 L 11.320312 -20.480469 L 14.878906 -20.480469 C 16.679688 -20.480469 17.71875 -19.398438 17.71875 -17.839844 C 17.71875 -16.277344 16.679688 -15.199219 14.878906 -15.199219 Z M 11.320312 -15.199219 "/></g></g></g><g fill="#ffffff" fill-opacity="1"><g transform="translate(156.760742, 348.374977)"><g><path d="M 20.277344 -28 L 10.320312 -28 L -0.121094 0 L 9.28125 0 L 10.480469 -3.71875 L 20.117188 -3.71875 L 21.359375 0 L 30.757812 0 Z M 12.558594 -10.398438 L 14.519531 -16.320312 C 14.800781 -17.359375 15.078125 -18.480469 15.320312 -19.917969 C 15.519531 -18.480469 15.800781 -17.359375 16.117188 -16.320312 L 18.039062 -10.398438 Z M 12.558594 -10.398438 "/></g></g></g><g fill="#ffffff" fill-opacity="1"><g transform="translate(196.597737, 348.374977)"><g><path d="M 2.078125 0 L 11.320312 0 L 11.320312 -8.238281 L 13.519531 -8.238281 L 19.238281 0 L 29.398438 0 L 22.238281 -9.757812 C 25.039062 -11.160156 27.039062 -13.71875 27.039062 -18.117188 C 27.039062 -25.757812 21.078125 -28 15.117188 -28 L 2.078125 -28 Z M 11.320312 -15.199219 L 11.320312 -20.480469 L 14.878906 -20.480469 C 16.679688 -20.480469 17.71875 -19.398438 17.71875 -17.839844 C 17.71875 -16.277344 16.679688 -15.199219 14.878906 -15.199219 Z M 11.320312 -15.199219 "/></g></g></g><g fill="#ffffff" fill-opacity="1"><g transform="translate(234.914889, 348.374977)"><g><path d="M 10.480469 0 L 19.679688 0 L 19.679688 -9.558594 L 30.359375 -28 L 19.878906 -28 L 15.078125 -17.398438 L 10.28125 -28 L -0.160156 -28 L 10.480469 -9.558594 Z M 10.480469 0 "/></g></g></g><g fill="#ffffff" fill-opacity="1"><g transform="translate(274.271942, 348.374977)"><g><path d="M 14.839844 0.640625 C 21.480469 0.640625 27.839844 -2.238281 27.839844 -10.878906 L 27.839844 -28 L 18.597656 -28 L 18.597656 -11.320312 C 18.597656 -8.757812 17.238281 -7.679688 14.839844 -7.679688 C 12.398438 -7.679688 11.039062 -8.757812 11.039062 -11.320312 L 11.039062 -28 L 1.800781 -28 L 1.800781 -10.878906 C 1.800781 -2.238281 8.199219 0.640625 14.839844 0.640625 Z M 14.839844 0.640625 "/></g></g></g><g fill="#ffffff" fill-opacity="1"><g transform="translate(313.109044, 348.374977)"><g><path d="M 2.078125 0 L 11.121094 0 L 11.121094 -12.839844 L 15.679688 -5.679688 L 20.558594 -5.679688 L 25.117188 -12.757812 L 25.117188 0 L 34.117188 0 L 34.117188 -28 L 25.917969 -28 L 18.117188 -15.757812 L 10.320312 -28 L 2.078125 -28 Z M 2.078125 0 "/></g></g></g></svg>